<svg xmlns="http://www.w3.org/2000/svg" viewBox="0 0 798.18 667.56"><defs><style>.cls-1{fill:#455a64;}.cls-2{fill:#00b8d4;}</style></defs><g id="Layer_2" data-name="Layer 2"><g id="레이어_1" data-name="레이어 1"><path class="cls-1" d="M592.26,286.37,319,559.65a18.52,18.52,0,0,1-26.2,0l-37.21-37.21L542,236.07l-46.44-46.44L209.14,476,79.05,345.91a18.54,18.54,0,0,1,0-26.2L352.33,46.44,305.89,0,19.51,286.37h0l-.47.48a65,65,0,0,0,0,91.93l.47.47L162.7,522.44l46.44,46.44,50.31,50.31.48.48a65,65,0,0,0,91.92,0L638.7,332.81Z"/><path class="cls-2" d="M538.73,48.37h0l-.48-.47a65,65,0,0,0-91.92,0l-.48.47L159.48,334.75l46.44,46.44L479.19,107.91a18.54,18.54,0,0,1,26.2,0L719.13,321.65a18.54,18.54,0,0,1,0,26.2L445.85,621.12l46.44,46.44L778.66,381.19l.48-.48a65,65,0,0,0,0-91.92Z"/></g></g></svg>