<svg width="22" height="22" viewBox="0 0 22 22" fill="none" xmlns="http://www.w3.org/2000/svg">
<path d="M5.21954 11L2.10745 2.99934C1.89112 2.44292 2.43379 1.91034 2.97095 2.09917L3.0562 2.13584L19.5562 10.3858C19.6624 10.439 19.753 10.5189 19.8192 10.6175C19.8854 10.7161 19.9249 10.8302 19.9338 10.9487C19.9428 11.0671 19.9209 11.1859 19.8703 11.2934C19.8197 11.4008 19.7421 11.4934 19.6451 11.5619L19.5562 11.6151L3.0562 19.8651C2.52179 20.1318 1.94062 19.6414 2.07995 19.0887L2.10745 19.0007L5.21954 11L2.10745 2.99934L5.21954 11ZM4.0352 4.16167L6.4277 10.3125H12.5025C12.6686 10.3125 12.8291 10.3727 12.9543 10.4819C13.0795 10.5911 13.1609 10.7419 13.1835 10.9065L13.19 11C13.1899 11.1663 13.1296 11.3269 13.0202 11.4521C12.9109 11.5774 12.7598 11.6587 12.595 11.6811L12.5025 11.6875H6.42587L4.03429 17.8383L17.7119 11L4.03429 4.16167H4.0352Z" fill="white"/>
</svg>
