<svg width="148" height="146" viewBox="0 0 148 146" fill="none" xmlns="http://www.w3.org/2000/svg">
<g clip-path="url(#clip0_2_56)">
<path d="M148 145.666C148 145.851 147.85 146 147.664 146H0.335678C0.149512 146 0 145.851 0 145.666C0 145.481 0.149512 145.332 0.335678 145.332H147.664C147.85 145.332 148 145.481 148 145.666Z" fill="#3F3D56"/>
<path d="M102.267 129.404L103.959 136.421L98.8816 137.824L97.7533 130.246L102.267 129.404Z" fill="#FFB6B6"/>
<path d="M110.447 106.67L105.087 111.161L101.702 116.494L106.498 119.581L114.678 110.319L110.447 106.67Z" fill="#FFB6B6"/>
<path d="M108.754 60.3601L113.268 75.5162C113.268 75.5162 133.296 92.9176 131.321 96.5663C129.346 100.215 116.089 110.319 116.089 110.319C116.089 110.319 117.073 113.55 114.183 112.215C111.293 110.88 108.19 107.232 108.19 107.232C108.19 107.232 108.19 104.425 109.601 104.986C111.011 105.548 117.499 97.9696 117.499 97.9696L103.395 85.0589V128.23C103.395 128.23 106.78 131.175 103.395 131.412C100.01 131.65 96.907 132.211 96.907 132.211C96.907 132.211 92.9579 130.808 94.3683 129.404L90.1371 106.39L87.0341 78.3229L89.2908 63.7281L108.754 60.3601Z" fill="#2F2E41"/>
<path d="M99.7278 135.579C99.7278 135.579 100.01 134.456 101.138 134.456H104.584C104.584 134.456 105.652 139.228 105.369 139.228C105.087 139.228 109.883 145.403 104.805 145.683C99.7278 145.964 98.3174 145.403 98.3174 145.403L97.7533 143.187C97.7533 143.187 96.907 141.754 97.1891 140.631C97.4712 139.508 99.7278 135.579 99.7278 135.579Z" fill="#2F2E41"/>
<path d="M106.78 117.336C106.78 117.336 110.02 117.285 109.246 118.152C108.472 119.02 107.062 120.423 107.062 120.423C107.062 120.423 103.707 127.159 102.14 125.896C100.574 124.633 98.0353 110.6 98.8816 108.916C99.7278 107.232 100.856 107.232 100.856 107.232L106.06 110.346C106.06 110.346 102.831 118.178 106.78 117.336Z" fill="#2F2E41"/>
<path d="M98.8816 36.5033L100.01 29.4866L92.3937 26.3993L91.2654 37.0647L98.8816 36.5033Z" fill="#FFB6B6"/>
<path opacity="0.1" d="M98.8816 36.5033L100.01 29.4866L92.3937 26.3993L91.2654 37.0647L98.8816 36.5033Z" fill="black"/>
<path d="M90.8422 35.521L99.8689 33.2757L109.46 36.363C109.46 36.363 113.691 48.1511 112.28 52.3611C110.87 56.5711 110.87 64.7945 110.87 64.7945C110.87 64.7945 110.729 61.2021 102.549 63.7281C94.3683 66.2542 88.4445 65.9735 88.4445 65.9735L88.1625 55.8694L84.6189 46.8946C83.1042 43.0585 84.7368 38.7031 88.4061 36.7907L90.8422 35.521Z" fill="#E6E6E6"/>
<path d="M132.279 68.5844C133.552 70.1027 133.797 71.9873 132.826 72.7936C131.855 73.6 130.035 73.0228 128.761 71.5038C128.244 70.9039 127.879 70.1896 127.696 69.4204L122.381 62.9195L124.97 60.8348L130.409 67.1682C131.137 67.4849 131.778 67.9705 132.279 68.5844V68.5844Z" fill="#FFB6B6"/>
<path d="M109.05 36.4526L107.2 43.7433L116.254 58.1637L125.497 67.4064L128.492 64.9335L119.171 53.3934L112.105 38.5243L109.05 36.4526Z" fill="#E6E6E6"/>
<path d="M130.603 29.4155C137.051 28.9414 141.789 21.9779 141.186 13.8621C140.584 5.74625 134.868 -0.448596 128.42 0.0254997C121.973 0.499596 117.235 7.4631 117.837 15.5789C118.44 23.6947 124.156 29.8896 130.603 29.4155Z" fill="#00B8D4"/>
<path d="M130.358 29.4155H129.794V85.3914H130.358V29.4155Z" fill="#2F2E41"/>
<path d="M130.499 28.2335L130.566 30.217L131.467 32.0531L127.709 31.8624L129.288 30.2812L129.11 28.479L130.499 28.2335Z" fill="#00B8D4"/>
<path d="M96.9569 31.7423C101.246 31.7423 104.724 28.2824 104.724 24.0145C104.724 19.7465 101.246 16.2867 96.9569 16.2867C92.6675 16.2867 89.1902 19.7465 89.1902 24.0145C89.1902 28.2824 92.6675 31.7423 96.9569 31.7423Z" fill="#FFB6B6"/>
<path d="M96.337 13.625C96.5618 13.7555 96.8628 13.558 96.9349 13.3092C97.0069 13.0605 96.923 12.7963 96.8397 12.551L96.4207 11.316C96.1235 10.4402 95.8081 9.53369 95.1644 8.86705C94.1929 7.86085 92.6489 7.60488 91.259 7.79033C89.4742 8.02847 87.7131 8.99011 86.8832 10.5803C86.0533 12.1705 86.4066 14.3894 87.9062 15.3816C85.7689 17.8189 85.0239 20.5353 85.1416 23.7678C85.2592 27.0004 88.7996 29.9754 91.1084 32.2526C91.624 31.9416 92.0928 30.4842 91.8093 29.9547C91.5257 29.4253 91.932 28.8119 91.5808 28.3242C91.2297 27.8366 90.9359 28.6131 91.2909 28.1282C91.5149 27.8222 90.6406 27.1182 90.9736 26.9351C92.5841 26.0493 93.1198 24.0519 94.1313 22.5223C95.3514 20.6773 97.4397 19.4279 99.6495 19.2206C100.867 19.1064 102.153 19.3132 103.15 20.0164C104.148 20.7196 104.794 21.9762 104.563 23.1708C105.162 22.5654 105.46 21.6782 105.348 20.8359C105.235 19.9936 104.715 19.2147 103.977 18.786C104.426 17.3108 104.041 15.6139 103.001 14.4723C101.96 13.3307 97.7388 13.5251 96.2195 13.8256" fill="#2F2E41"/>
<path d="M96.1011 19.2654C94.0889 19.4815 92.636 21.2158 91.4092 22.8174C90.7021 23.7405 89.9614 24.7599 89.9792 25.9205C89.9971 27.0938 90.7856 28.1002 91.1624 29.2122C91.7783 31.0298 91.178 33.1922 89.7119 34.4376C91.1606 34.7111 92.7267 33.6303 92.9768 32.1844C93.2679 30.5012 91.9855 28.8766 92.1374 27.1753C92.2712 25.6765 93.4583 24.5229 94.4675 23.4022C95.4767 22.2816 96.4246 20.7944 95.9603 19.3623" fill="#2F2E41"/>
<path d="M88.694 65.8329H30.6785C24.0996 65.8329 18.7662 71.1395 18.7662 77.6855V133.66C18.7662 140.206 24.0995 145.512 30.6785 145.512H88.694C95.273 145.512 100.606 140.206 100.606 133.66V77.6855C100.606 71.1395 95.273 65.8329 88.694 65.8329V65.8329Z" fill="white"/>
<path d="M88.6941 145.793H30.6786C23.9546 145.793 18.4842 140.35 18.4842 133.66V77.6856C18.4842 70.9953 23.9546 65.5523 30.6786 65.5523H88.6941C95.418 65.5523 100.888 70.9953 100.888 77.6856V133.66C100.888 140.35 95.418 145.793 88.6941 145.793ZM30.6786 66.1136C24.2656 66.1136 19.0483 71.3047 19.0483 77.6856V133.66C19.0483 140.041 24.2656 145.232 30.6786 145.232H88.6941C95.107 145.232 100.324 140.041 100.324 133.66V77.6856C100.324 71.3047 95.107 66.1136 88.6941 66.1136H30.6786Z" fill="#3F3D56"/>
<path d="M82.5725 71.3394C83.3154 71.3394 83.9177 70.7401 83.9177 70.0009C83.9177 69.2617 83.3154 68.6624 82.5725 68.6624C81.8295 68.6624 81.2272 69.2617 81.2272 70.0009C81.2272 70.7401 81.8295 71.3394 82.5725 71.3394Z" fill="#3F3D56"/>
<path d="M86.2719 71.3394C87.0149 71.3394 87.6172 70.7401 87.6172 70.0009C87.6172 69.2617 87.0149 68.6624 86.2719 68.6624C85.529 68.6624 84.9267 69.2617 84.9267 70.0009C84.9267 70.7401 85.529 71.3394 86.2719 71.3394Z" fill="#3F3D56"/>
<path d="M89.9714 71.3394C90.7144 71.3394 91.3167 70.7401 91.3167 70.0009C91.3167 69.2617 90.7144 68.6624 89.9714 68.6624C89.2284 68.6624 88.6261 69.2617 88.6261 70.0009C88.6261 70.7401 89.2284 71.3394 89.9714 71.3394Z" fill="#3F3D56"/>
<path d="M28.7767 125.916C28.3588 125.916 28.0188 126.255 28.0188 126.67C28.0188 126.873 28.0975 127.061 28.2403 127.199C28.3844 127.346 28.5732 127.425 28.7767 127.425H89.4521C89.87 127.425 90.21 127.086 90.21 126.67C90.21 126.468 90.1313 126.28 89.9885 126.142C89.8444 125.995 89.6556 125.916 89.4521 125.916H28.7767Z" fill="#E6E6E6"/>
<path d="M61.2202 125.665V127.676H28.7767C28.4988 127.676 28.2462 127.565 28.0643 127.379C27.8773 127.198 27.7661 126.947 27.7661 126.67C27.7661 126.117 28.2209 125.665 28.7767 125.665H61.2202V125.665Z" fill="#00B8D4"/>
<path d="M88.1889 121.894H78.0831C76.9687 121.894 76.062 120.992 76.062 119.883C76.062 118.774 76.9687 117.872 78.0831 117.872H88.1889C89.3033 117.872 90.21 118.774 90.21 119.883C90.21 120.992 89.3033 121.894 88.1889 121.894Z" fill="#E6E6E6"/>
<path d="M50.2231 123.332L43.1587 99.7139L42.6179 99.874L49.6576 123.409" fill="#2F2E41"/>
<path d="M50.4676 69.5821C56.9153 69.108 61.6535 62.1445 61.0507 54.0287C60.448 45.9128 54.7324 39.718 48.2847 40.1921C41.8371 40.6662 37.0988 47.6297 37.7016 55.7455C38.3044 63.8613 44.0199 70.0562 50.4676 69.5821Z" fill="#00B8D4"/>
<path d="M50.2224 69.5821H49.6583V125.558H50.2224V69.5821Z" fill="#2F2E41"/>
<path d="M43.4761 99.0297L44.1095 100.912L45.4992 102.416L41.8421 103.3L42.9032 101.336L42.2155 99.659L43.4761 99.0297Z" fill="#00B8D4"/>
<path d="M50.3628 68.4001L50.4305 70.3836L51.3314 72.2197L47.5728 72.029L49.1527 70.4478L48.9742 68.6456L50.3628 68.4001Z" fill="#00B8D4"/>
<path d="M43.6662 99.523C49.7047 97.2246 52.2309 89.1998 49.3087 81.599C46.3864 73.9982 39.1223 69.6997 33.0838 71.9981C27.0452 74.2965 24.519 82.3214 27.4413 89.9222C30.3635 97.523 37.6277 101.821 43.6662 99.523Z" fill="#00B8D4"/>
<path d="M94.9233 62.9599C96.8261 63.5315 98.0721 64.9717 97.7063 66.1766C97.3405 67.3814 95.5016 67.8945 93.5982 67.3224C92.8347 67.1043 92.1348 66.7074 91.5571 66.1649L83.5254 63.6417L84.5363 60.4841L92.5787 62.7997C93.3619 62.666 94.1658 62.721 94.9233 62.9599Z" fill="#FFB6B6"/>
<path d="M80.9694 42.257L89.4318 36.0823L89.1498 47.8704L81.2515 57.9744L89.7139 61.3425L89.4318 66.1514C89.4318 66.1514 78.7127 63.5878 77.0202 63.3071C75.3277 63.0265 73.9173 59.0971 73.9173 59.0971L80.9694 42.257Z" fill="#E6E6E6"/>
</g>
<defs>
<clipPath id="clip0_2_56">
<rect width="148" height="146" fill="white"/>
</clipPath>
</defs>
</svg>
